<svg xmlns="http://www.w3.org/2000/svg" viewBox="0 0 40.09 45">
  <ellipse cx="20.04" cy="43.5" rx="11.5" ry="1.5" style="fill:#45413c;isolation:isolate;opacity:.15"/>
  <path d="M36.64 9.4c-5-2.5-10.6-3.9-16.6-3.9S8.44 6.9 3.44 9.4l2.2 4.6c1.2 2.5 1.9 5.2 1.9 8v4.4c0 1 .7 1.9 1.7 2.1 1.3.2 2.3-.8 2.3-2v-.7l7.6 15.4c.4.7 1.4.7 1.8 0 .6-1.2 1.5-3.1 2.6-5.3V38c0 .8.7 1.5 1.5 1.5s1.5-.7 1.5-1.5v-5.8c0-1.5.4-3.1 1-4.4 1.3-2.6 2.6-5.3 4-8v2.7c0 .8.7 1.5 1.5 1.5s1.5-.7 1.5-1.5V16c0-1.5.4-3.1 1-4.4.4-.7.8-1.5 1.1-2.2Z" style="fill:#ffe500"/>
  <path d="M20.04 8.7c5.5 0 10.7 1.2 15.3 3.3.1-.1.1-.3.2-.4.4-.7.7-1.5 1.1-2.2-5-2.5-10.6-3.9-16.6-3.9S8.44 6.9 3.44 9.4l1.3 2.6c4.7-2.1 9.8-3.3 15.3-3.3Z" style="fill:#ebcb00"/>
  <path d="M26.54 20.5c-2.5 0-4.5 2-4.5 4.5s2 4.5 4.5 4.5h.2c1.1-2.2 2.3-4.6 3.5-7.1-.8-1.1-2.2-1.9-3.7-1.9ZM19.54 31c0-2.5-2-4.5-4.5-4.5-1 0-2 .4-2.7.9l3.9 7.9c1.9-.5 3.3-2.2 3.3-4.3Z" style="fill:#ff6242;stroke:#45413c;stroke-linecap:round;stroke-linejoin:round"/>
  <circle cx="26.54" cy="12.5" r="4.5" style="fill:#ff6242;stroke:#45413c;stroke-linecap:round;stroke-linejoin:round"/>
  <path d="M20.04 5.5c6 0 11.6 1.4 16.6 3.9 0 0 2.5.3 2.9-1.9 1-5.5-15.3-7-19.5-7S-.46 2 .54 7.5c.4 2.2 2.9 1.9 2.9 1.9 5-2.5 10.6-3.9 16.6-3.9Z" style="fill:#f0d5a8"/>
  <path d="M.54 7.7C4.24 4.1 16.44 3 20.04 3s15.8 1.1 19.5 4.7v-.2c1-5.5-15.3-7-19.5-7S-.46 2 .54 7.5v.2Z" style="fill:#f7e5c6"/>
  <path d="M20.04 5.5c6 0 11.6 1.4 16.6 3.9 0 0 2.5.3 2.9-1.9 1-5.5-15.3-7-19.5-7S-.46 2 .54 7.5c.4 2.2 2.9 1.9 2.9 1.9 5-2.5 10.6-3.9 16.6-3.9Z" style="fill:none;stroke:#45413c;stroke-linecap:round;stroke-linejoin:round"/>
  <circle cx="13.04" cy="15" r="4.5" style="fill:#ff6242;stroke:#45413c;stroke-linecap:round;stroke-linejoin:round"/>
  <path d="M11.54 25.8v-2.3M36.64 9.4c-5-2.5-10.6-3.9-16.6-3.9S8.44 6.9 3.44 9.4l2.2 4.6c1.2 2.5 1.9 5.2 1.9 8v4.4c0 1 .7 1.9 1.7 2.1 1.3.2 2.3-.8 2.3-2v-.7l7.6 15.4c.4.7 1.4.7 1.8 0 .6-1.2 1.5-3.1 2.6-5.3V38c0 .8.7 1.5 1.5 1.5s1.5-.7 1.5-1.5v-5.8c0-1.5.4-3.1 1-4.4 1.3-2.6 2.6-5.3 4-8v2.7c0 .8.7 1.5 1.5 1.5s1.5-.7 1.5-1.5V16c0-1.5.4-3.1 1-4.4.4-.7.8-1.5 1.1-2.2ZM23.54 33.5v2.4M31.54 18v1.8" style="fill:none;stroke:#45413c;stroke-linecap:round;stroke-linejoin:round"/>
</svg>
