<svg xmlns="http://www.w3.org/2000/svg" viewBox="0 0 172.83 62.82">
  <defs>
    <clipPath id="a">
      <ellipse cx="103.83" cy="54.32" rx="92" ry="27.5" style="fill:none"/>
    </clipPath>
  </defs>
  <path d="M36.64 9.4c-5-2.5-10.6-3.9-16.6-3.9S8.44 6.9 3.44 9.4l2.2 4.6c1.2 2.5 1.9 5.2 1.9 8v4.4c0 1 .7 1.9 1.7 2.1 1.3.2 2.3-.8 2.3-2v-.7l7.6 15.4c.4.7 1.4.7 1.8 0 .6-1.2 1.5-3.1 2.6-5.3V38c0 .8.7 1.5 1.5 1.5s1.5-.7 1.5-1.5v-5.8c0-1.5.4-3.1 1-4.4 1.3-2.6 2.6-5.3 4-8v2.7c0 .8.7 1.5 1.5 1.5s1.5-.7 1.5-1.5V16c0-1.5.4-3.1 1-4.4.4-.7.8-1.5 1.1-2.2Z" style="fill:#ffe500"/>
  <path d="M20.04 8.7c5.5 0 10.7 1.2 15.3 3.3.1-.1.1-.3.2-.4.4-.7.7-1.5 1.1-2.2-5-2.5-10.6-3.9-16.6-3.9S8.44 6.9 3.44 9.4l1.3 2.6c4.7-2.1 9.8-3.3 15.3-3.3Z" style="fill:#ebcb00"/>
  <path d="M26.54 20.5c-2.5 0-4.5 2-4.5 4.5s2 4.5 4.5 4.5h.2c1.1-2.2 2.3-4.6 3.5-7.1-.8-1.1-2.2-1.9-3.7-1.9ZM19.54 31c0-2.5-2-4.5-4.5-4.5-1 0-2 .4-2.7.9l3.9 7.9c1.9-.5 3.3-2.2 3.3-4.3Z" style="fill:#ff6242;stroke:#45413c;stroke-linecap:round;stroke-linejoin:round"/>
  <circle cx="26.54" cy="12.5" r="4.5" style="fill:#ff6242;stroke:#45413c;stroke-linecap:round;stroke-linejoin:round"/>
  <path d="M20.04 5.5c6 0 11.6 1.4 16.6 3.9 0 0 2.5.3 2.9-1.9 1-5.5-15.3-7-19.5-7S-.46 2 .54 7.5c.4 2.2 2.9 1.9 2.9 1.9 5-2.5 10.6-3.9 16.6-3.9Z" style="fill:#f0d5a8"/>
  <path d="M.54 7.7C4.24 4.1 16.44 3 20.04 3s15.8 1.1 19.5 4.7v-.2c1-5.5-15.3-7-19.5-7S-.46 2 .54 7.5v.2Z" style="fill:#f7e5c6"/>
  <path d="M20.04 5.5c6 0 11.6 1.4 16.6 3.9 0 0 2.5.3 2.9-1.9 1-5.5-15.3-7-19.5-7S-.46 2 .54 7.5c.4 2.2 2.9 1.9 2.9 1.9 5-2.5 10.6-3.9 16.6-3.9Z" style="fill:none;stroke:#45413c;stroke-linecap:round;stroke-linejoin:round"/>
  <circle cx="13.04" cy="15" r="4.5" style="fill:#ff6242;stroke:#45413c;stroke-linecap:round;stroke-linejoin:round"/>
  <path d="M11.54 25.8v-2.3M36.64 9.4c-5-2.5-10.6-3.9-16.6-3.9S8.44 6.9 3.44 9.4l2.2 4.6c1.2 2.5 1.9 5.2 1.9 8v4.4c0 1 .7 1.9 1.7 2.1 1.3.2 2.3-.8 2.3-2v-.7l7.6 15.4c.4.7 1.4.7 1.8 0 .6-1.2 1.5-3.1 2.6-5.3V38c0 .8.7 1.5 1.5 1.5s1.5-.7 1.5-1.5v-5.8c0-1.5.4-3.1 1-4.4 1.3-2.6 2.6-5.3 4-8v2.7c0 .8.7 1.5 1.5 1.5s1.5-.7 1.5-1.5V16c0-1.5.4-3.1 1-4.4.4-.7.8-1.5 1.1-2.2ZM23.54 33.5v2.4M31.54 18v1.8" style="fill:none;stroke:#45413c;stroke-linecap:round;stroke-linejoin:round"/>
  <path d="M70 3.82c-11.66 0-19.26 4.82-19.26 11.6 0 3.25 2.32 5.63 5.57 5.63 4.12 0 7.08-3.54 8.01-7.31-.64.64-1.45.99-2.32.99-1.28 0-2.26-1.1-2.26-2.32 0-3.31 4.18-5.92 10.21-5.92 1.39 0 3.07.17 4.18.52-8.12 8.12-10.85 24.13-17.46 24.13a2.6 2.6 0 0 1-2.61-2.61c0-.75.41-1.45.93-1.97-.58-.12-1.22-.23-1.86-.23-4.53 0-7.89 3.31-7.89 7.72 0 5.11 4.06 8.24 8.99 8.24 6.85 0 11.72-4.99 15.2-18.22 1.45-5.57 3.94-11.78 6.85-16.13 3.95 1.86 5.45 5.11 5.45 8.53 0 3.07-1.62 4.82-3.54 4.82-1.68 0-2.84-1.33-2.96-2.9-2.44.99-3.77 3.42-3.77 5.92 0 3.07 2.67 6.27 7.25 6.27 5.22 0 10.04-4.35 10.04-11.43 0-9.05-7.6-15.32-18.74-15.32ZM96.52 19.14c2.26 0 4.06-1.8 4.06-4s-1.8-4-4.06-4-4 1.74-4 4 1.8 4 4 4ZM167.99 29.58c-.99 1.8-2.96 5.63-5.34 5.63-1.28 0-1.74-.99-1.74-2.09 0-1.51.7-3.25 3.48-11.02h-6.32l-.81 2.26c-.46-2.09-2.55-3.13-4.64-3.13-4.49 0-8.38 3.92-10.33 8.46-1.97 3.41-4.74 7.75-8.64 9.93.12-.7.17-1.39.17-2.15 0-.93-.12-2.03-.46-2.96 3.37-1.28 5.11-4.06 5.05-6.79 0-2.96-2.03-5.63-6.38-5.63h-3.25c-.46 0-1.28-.06-1.28-.7v-.29l-1.39-.35c-1.28 2.91-2.72 6.26-4.15 8.97-1.97 3.4-4.73 7.71-8.61 9.88.12-.7.17-1.39.17-2.15 0-.93-.12-2.03-.46-2.96 3.37-1.28 5.11-4.06 5.05-6.79 0-2.96-2.03-5.63-6.38-5.63h-3.25c-.46 0-1.28-.06-1.28-.7v-.29l-1.39-.35c-1.58 3.6-3.4 7.86-5.16 10.77-1.14 1.85-2.64 3.68-4.29 3.68-1.28 0-1.74-.93-1.74-1.91 0-1.45.64-3.13 3.42-11.2h-6.56l-3.31 9.92c-.58 1.74-1.1 3.77-1.1 5.69 0 2.26 1.1 4.64 4.24 4.64 4.94 0 9.18-7.1 11.44-11.33 1.5-2.66 2.26-3.58 4.69-3.58h2.78c2.2 0 3.25.99 3.25 2.55 0 1.04-.7 1.97-1.62 2.32-.81-.64-1.8-.93-2.84-.93-2.38 0-4.93 1.68-5.16 4.18 2.15 1.16 2.61 3.83 2.61 6.03v.75c-4.53 2.2-10.97 7.14-10.97 12.71 0 2.2 1.33 3.77 3.6 3.77 6.32 0 12.24-11.43 13.87-16.65 5.22-2.86 7.53-6.24 10.17-11.27 1.46-2.56 2.23-3.47 4.63-3.47h2.78c2.2 0 3.25.99 3.25 2.55 0 1.04-.7 1.97-1.62 2.32-.81-.64-1.8-.93-2.84-.93-2.38 0-4.93 1.68-5.16 4.18 2.15 1.16 2.61 3.83 2.61 6.03v.75c-4.53 2.2-10.97 7.14-10.97 12.71 0 2.2 1.33 3.77 3.6 3.77 6.32 0 12.24-11.43 13.87-16.65 3.62-1.98 5.84-4.22 7.75-7.09 0 .2-.03.4-.03.59 0 4.64 2.2 6.67 5.11 6.67 3.19 0 6.44-3.31 7.66-6.09-.06.35-.12.75-.12 1.22 0 1.86.7 4.93 3.95 4.93 4.24 0 8.06-4.82 11.95-12.36l-1.51-.46Zm-66.2 23.55c-.7 0-1.04-.64-1.04-1.28 0-2.78 3.08-5.57 5.34-6.85-.41 1.62-1.74 8.12-4.29 8.12Zm20.31 0c-.7 0-1.04-.64-1.04-1.28 0-2.78 3.08-5.57 5.34-6.85-.41 1.62-1.74 8.12-4.29 8.12Zm28.49-17.93c-1.28 0-1.91-.99-1.91-2.61 0-3.65 2.78-8.59 5.63-8.59 1.04 0 1.8 1.04 1.8 2.78 0 3.31-2.67 8.41-5.51 8.41Z" style="fill:#f7e5c6;stroke:#45413c;stroke-linecap:round;stroke-linejoin:round"/>
  <g style="clip-path:url(#a)">
    <path d="M70 3.82c-11.66 0-19.26 4.82-19.26 11.6 0 3.25 2.32 5.63 5.57 5.63 4.12 0 7.08-3.54 8.01-7.31-.64.64-1.45.99-2.32.99-1.28 0-2.26-1.1-2.26-2.32 0-3.31 4.18-5.92 10.21-5.92 1.39 0 3.07.17 4.18.52-8.12 8.12-10.85 24.13-17.46 24.13a2.6 2.6 0 0 1-2.61-2.61c0-.75.41-1.45.93-1.97-.58-.12-1.22-.23-1.86-.23-4.53 0-7.89 3.31-7.89 7.72 0 5.11 4.06 8.24 8.99 8.24 6.85 0 11.72-4.99 15.2-18.22 1.45-5.57 3.94-11.78 6.85-16.13 3.95 1.86 5.45 5.11 5.45 8.53 0 3.07-1.62 4.82-3.54 4.82-1.68 0-2.84-1.33-2.96-2.9-2.44.99-3.77 3.42-3.77 5.92 0 3.07 2.67 6.27 7.25 6.27 5.22 0 10.04-4.35 10.04-11.43 0-9.05-7.6-15.32-18.74-15.32ZM96.52 19.14c2.26 0 4.06-1.8 4.06-4s-1.8-4-4.06-4-4 1.74-4 4 1.8 4 4 4ZM167.99 29.58c-.99 1.8-2.96 5.63-5.34 5.63-1.28 0-1.74-.99-1.74-2.09 0-1.51.7-3.25 3.48-11.02h-6.32l-.81 2.26c-.46-2.09-2.55-3.13-4.64-3.13-4.49 0-8.38 3.92-10.33 8.46-1.97 3.41-4.74 7.75-8.64 9.93.12-.7.17-1.39.17-2.15 0-.93-.12-2.03-.46-2.96 3.37-1.28 5.11-4.06 5.05-6.79 0-2.96-2.03-5.63-6.38-5.63h-3.25c-.46 0-1.28-.06-1.28-.7v-.29l-1.39-.35c-1.28 2.91-2.72 6.26-4.15 8.97-1.97 3.4-4.73 7.71-8.61 9.88.12-.7.17-1.39.17-2.15 0-.93-.12-2.03-.46-2.96 3.37-1.28 5.11-4.06 5.05-6.79 0-2.96-2.03-5.63-6.38-5.63h-3.25c-.46 0-1.28-.06-1.28-.7v-.29l-1.39-.35c-1.58 3.6-3.4 7.86-5.16 10.77-1.14 1.85-2.64 3.68-4.29 3.68-1.28 0-1.74-.93-1.74-1.91 0-1.45.64-3.13 3.42-11.2h-6.56l-3.31 9.92c-.58 1.74-1.1 3.77-1.1 5.69 0 2.26 1.1 4.64 4.24 4.64 4.94 0 9.18-7.1 11.44-11.33 1.5-2.66 2.26-3.58 4.69-3.58h2.78c2.2 0 3.25.99 3.25 2.55 0 1.04-.7 1.97-1.62 2.32-.81-.64-1.8-.93-2.84-.93-2.38 0-4.93 1.68-5.16 4.18 2.15 1.16 2.61 3.83 2.61 6.03v.75c-4.53 2.2-10.97 7.14-10.97 12.71 0 2.2 1.33 3.77 3.6 3.77 6.32 0 12.24-11.43 13.87-16.65 5.22-2.86 7.53-6.24 10.17-11.27 1.46-2.56 2.23-3.47 4.63-3.47h2.78c2.2 0 3.25.99 3.25 2.55 0 1.04-.7 1.97-1.62 2.32-.81-.64-1.8-.93-2.84-.93-2.38 0-4.93 1.68-5.16 4.18 2.15 1.16 2.61 3.83 2.61 6.03v.75c-4.53 2.2-10.97 7.14-10.97 12.71 0 2.2 1.33 3.77 3.6 3.77 6.32 0 12.24-11.43 13.87-16.65 3.62-1.98 5.84-4.22 7.75-7.09 0 .2-.03.4-.03.59 0 4.64 2.2 6.67 5.11 6.67 3.19 0 6.44-3.31 7.66-6.09-.06.35-.12.75-.12 1.22 0 1.86.7 4.93 3.95 4.93 4.24 0 8.06-4.82 11.95-12.36l-1.51-.46Zm-66.2 23.55c-.7 0-1.04-.64-1.04-1.28 0-2.78 3.08-5.57 5.34-6.85-.41 1.62-1.74 8.12-4.29 8.12Zm20.31 0c-.7 0-1.04-.64-1.04-1.28 0-2.78 3.08-5.57 5.34-6.85-.41 1.62-1.74 8.12-4.29 8.12Zm28.49-17.93c-1.28 0-1.91-.99-1.91-2.61 0-3.65 2.78-8.59 5.63-8.59 1.04 0 1.8 1.04 1.8 2.78 0 3.31-2.67 8.41-5.51 8.41Z" style="fill:#f0d5a8;stroke:#45413c;stroke-linecap:round;stroke-linejoin:round"/>
  </g>
</svg>
